<?xml version="1.0" encoding="UTF-8"?>
<svg xmlns="http://www.w3.org/2000/svg" xmlns:xlink="http://www.w3.org/1999/xlink" width="2836" height="2836" viewBox="0 0 2836 2836">
<path fill-rule="evenodd" fill="rgb(100%, 100%, 100%)" fill-opacity="1" d="M 0.882812 0.46875 L 2835.53125 0.46875 L 2835.53125 2835.117188 L 0.882812 2835.117188 L 0.882812 0.46875 "/>
<path fill-rule="evenodd" fill="rgb(0%, 0%, 0%)" fill-opacity="1" d="M 638.28125 1610.199219 C 583.988281 1674.320312 538.1875 1718.128906 500.878906 1741.640625 C 579.621094 1600.210938 618.992188 1529.488281 618.992188 1529.488281 C 628.035156 1540.199219 634.820312 1543.730469 639.347656 1540.101562 C 638.617188 1525.449219 644.921875 1514.078125 658.269531 1505.980469 C 669.828125 1498.769531 674.507812 1487.980469 672.316406 1473.578125 C 683.304688 1470.140625 688.179688 1461.539062 686.9375 1447.78125 C 698.070312 1406.5 719.378906 1373.71875 750.871094 1349.449219 C 768.78125 1349.109375 775.660156 1347.96875 771.515625 1346.011719 C 767.957031 1329.429688 763.847656 1319.300781 759.191406 1315.621094 C 777.5625 1310.859375 794.761719 1301.210938 810.796875 1286.660156 C 853.828125 1212.320312 886.035156 1179.160156 907.410156 1187.191406 C 928.070312 1164.671875 939.347656 1144.988281 941.246094 1128.128906 C 992.746094 1071.46875 1028.488281 1033.441406 1048.46875 1014.03125 C 1057.011719 1016.898438 1065.230469 1016.328125 1073.128906 1012.308594 C 1085.5 998.410156 1091.988281 985.421875 1092.621094 973.320312 C 1101.230469 978.699219 1106.960938 981.671875 1109.828125 982.199219 C 1107.820312 969.050781 1106.769531 955.871094 1106.671875 942.640625 C 1118.148438 959.589844 1127.230469 966.46875 1133.910156 963.28125 C 1125.890625 956.359375 1120.730469 951.011719 1118.429688 947.230469 C 1126.109375 934.78125 1135.050781 925.980469 1145.238281 920.851562 C 1164.238281 890.390625 1189.570312 867.890625 1221.21875 853.339844 C 1221.449219 847.320312 1220.210938 839.960938 1217.488281 831.261719 C 1234.019531 826.160156 1248.640625 819.46875 1261.359375 811.191406 C 1275.019531 800.71875 1283.238281 789.539062 1286.019531 777.660156 C 1303.109375 786.339844 1315.628906 789.011719 1323.578125 785.679688 C 1318.050781 776.128906 1320.921875 762.28125 1332.179688 744.109375 C 1345.589844 752.300781 1354.089844 752.109375 1357.699219 743.539062 C 1343.96875 729.609375 1353.71875 714.230469 1386.941406 697.378906 C 1441.46875 657.621094 1506.648438 614.710938 1582.46875 568.660156 C 1494.859375 654.679688 1449.371094 704.75 1446 718.890625 C 1444.738281 733.871094 1438.050781 744.191406 1425.929688 749.851562 C 1416.421875 744.019531 1403.46875 747.609375 1387.089844 760.601562 C 1375.769531 792.878906 1375.769531 814.148438 1387.089844 824.390625 C 1359.929688 848.589844 1337.191406 864.839844 1318.859375 873.128906 C 1298.828125 874.648438 1277.039062 890.320312 1253.5 920.140625 C 1247.988281 941.769531 1248.761719 960.121094 1255.789062 975.191406 C 1211.601562 982.050781 1176.628906 1003.261719 1150.871094 1038.828125 C 1130.601562 1103.460938 1086.839844 1151.25 1019.570312 1182.179688 C 1022.109375 1215.140625 1017.53125 1241.140625 1005.808594 1260.148438 C 972.558594 1253.679688 950.003906 1261.710938 938.148438 1284.238281 C 899.949219 1311.898438 873.574219 1343.628906 859.023438 1379.421875 C 842.589844 1392.738281 823.09375 1401.148438 800.539062 1404.640625 C 802.480469 1415.511719 801.90625 1423.730469 798.820312 1429.300781 C 786.601562 1434.261719 777.714844 1441.71875 772.160156 1451.660156 C 770.890625 1457.949219 770.125 1462.628906 769.867188 1465.710938 C 746.152344 1482.070312 734.96875 1496.589844 736.324219 1509.289062 C 702.769531 1523.25 684.234375 1538.921875 680.710938 1556.300781 C 678.078125 1579.980469 676.359375 1600.808594 675.550781 1618.800781 C 661.734375 1603.039062 649.308594 1600.179688 638.28125 1610.199219 Z M 1312.039062 2305.171875 C 1237.609375 2389.414062 1180.878906 2454.441406 1141.839844 2500.253906 C 1194.820312 2401.640625 1233.429688 2333.980469 1257.671875 2297.277344 C 1262.269531 2282.242188 1268.199219 2265.804688 1275.441406 2247.96875 C 1289.800781 2264.117188 1300.121094 2262.585938 1306.398438 2243.378906 C 1298.589844 2214.589844 1306.800781 2189.363281 1331.058594 2167.695312 C 1341.050781 2175.597656 1353.851562 2167.570312 1369.46875 2143.613281 C 1396.601562 2066.886719 1417.808594 2020.253906 1433.121094 2003.710938 C 1431.261719 2030.097656 1433.171875 2041.945312 1438.851562 2039.257812 C 1446.929688 2023.65625 1450.558594 2009.320312 1449.75 1996.253906 C 1471.710938 1985.613281 1489.679688 1966.117188 1503.648438 1937.769531 C 1532.78125 1916.503906 1563.550781 1880.574219 1595.960938 1829.96875 C 1646.601562 1760.28125 1683.671875 1706.378906 1707.199219 1668.28125 C 1705.75 1688.691406 1721.429688 1689.839844 1754.21875 1671.71875 C 1764.941406 1642.679688 1796.089844 1615.160156 1847.679688 1589.148438 C 1857.21875 1573.011719 1864.441406 1557.480469 1869.328125 1542.570312 C 1886.230469 1529.648438 1906.488281 1521.429688 1930.121094 1517.910156 C 1931.171875 1510.25 1929.449219 1503.75 1924.960938 1498.421875 C 1956.878906 1483.609375 1986.878906 1458.578125 2014.980469 1423.308594 C 2016.238281 1413.941406 2015.089844 1405.71875 2011.539062 1398.648438 C 2047.558594 1398.289062 2074.890625 1387.96875 2093.53125 1367.691406 C 2102.289062 1332.03125 2109.75 1311.191406 2115.898438 1305.191406 C 2123.800781 1322.820312 2133.929688 1327.410156 2146.289062 1318.949219 C 2209.648438 1273.398438 2270.429688 1234.988281 2328.621094 1203.699219 C 2206.679688 1321.820312 2145.710938 1380.878906 2145.710938 1380.878906 C 2138.230469 1379.230469 2130.25 1379.558594 2121.78125 1381.878906 C 2118.601562 1399.460938 2113.390625 1411.398438 2106.148438 1417.71875 C 2095.828125 1414.980469 2087.328125 1414.691406 2080.640625 1416.859375 C 2079.488281 1433.679688 2078.921875 1442.089844 2078.921875 1442.089844 C 2068.019531 1449.070312 2062.578125 1452.558594 2062.578125 1452.558594 C 2055.199219 1452.980469 2050.609375 1451.261719 2048.820312 1447.398438 C 2047.328125 1462.230469 2047.710938 1471.980469 2049.960938 1476.640625 C 1991.820312 1522.210938 1960.191406 1562.25 1955.070312 1596.761719 C 1924.738281 1621.601562 1904.101562 1642.808594 1893.148438 1660.410156 C 1881.269531 1650.449219 1868.851562 1653.128906 1855.878906 1668.441406 C 1818.800781 1714.308594 1800.261719 1737.238281 1800.261719 1737.238281 C 1785.058594 1740.199219 1775.699219 1737.53125 1772.171875 1729.210938 C 1756.539062 1752.410156 1750.230469 1769.421875 1753.238281 1780.25 C 1694.378906 1846.433594 1652.148438 1894.980469 1626.53125 1925.886719 C 1614.539062 1919.964844 1607.660156 1920.730469 1605.890625 1928.175781 C 1592.410156 1948.800781 1586.101562 1964.472656 1586.96875 1975.195312 C 1579.371094 1977.371094 1572.871094 1975.078125 1567.480469 1968.3125 C 1566.558594 1980.628906 1567.328125 1990.949219 1569.769531 1999.277344 C 1557 2000.976562 1547.058594 1994.667969 1539.949219 1980.355469 C 1541.199219 2016.667969 1535.660156 2040.558594 1523.328125 2052.027344 C 1484.210938 2087.3125 1462.230469 2110.246094 1457.390625 2120.832031 C 1454.96875 2136.328125 1457.449219 2144.738281 1464.839844 2146.058594 C 1447.820312 2146.660156 1435.109375 2151.726562 1426.710938 2161.253906 C 1403.601562 2196.785156 1381.710938 2212.839844 1361.058594 2209.417969 C 1363.460938 2230.894531 1360.601562 2245.992188 1352.460938 2254.710938 C 1349.5 2245.503906 1344.910156 2243.785156 1338.699219 2249.554688 C 1343.621094 2277.976562 1334.730469 2296.515625 1312.039062 2305.171875 Z M 987.578125 2199.445312 C 921.132812 2305.121094 859.515625 2397.128906 802.726562 2475.46875 C 869.019531 2344.734375 909.742188 2261.621094 924.894531 2226.125 C 917.824219 2212.019531 918.792969 2192.523438 927.796875 2167.636719 C 956.613281 2170.730469 970.347656 2157.589844 968.996094 2128.210938 C 979.644531 2098.855469 998.300781 2076.804688 1024.960938 2062.054688 C 1090.03125 1999.238281 1119.160156 1962.75 1112.351562 1952.597656 C 1121.660156 1917.863281 1131.71875 1893.25 1142.539062 1878.753906 C 1148.140625 1851.847656 1154.539062 1829.039062 1161.730469 1810.339844 C 1192.46875 1803.078125 1213.558594 1787.789062 1225 1764.46875 C 1260.828125 1719.601562 1302.230469 1671.910156 1349.21875 1621.398438 C 1411.75 1559.46875 1451.089844 1511.949219 1467.238281 1478.828125 C 1464.550781 1465.910156 1463.949219 1451.601562 1465.449219 1435.898438 C 1484.148438 1445.019531 1506.96875 1438.71875 1533.890625 1416.988281 C 1546.898438 1400.058594 1555.761719 1387.121094 1560.480469 1378.171875 C 1587.609375 1363.441406 1614.25 1343.511719 1640.429688 1318.390625 C 1653.210938 1316.890625 1664.148438 1304.21875 1673.230469 1280.390625 C 1677.171875 1270.320312 1684.03125 1262.789062 1693.808594 1257.800781 C 1706.300781 1256.75 1722.898438 1249.710938 1743.621094 1236.660156 C 1754.019531 1213.191406 1762.199219 1198.339844 1768.160156 1192.109375 C 1784.140625 1189.410156 1795.148438 1183.679688 1801.191406 1174.921875 C 1828.398438 1147.289062 1846.191406 1126.128906 1854.539062 1111.449219 C 1887.03125 1100.851562 1907.539062 1085.859375 1916.050781 1066.488281 C 1916.359375 1062.238281 1914.808594 1055.621094 1911.398438 1046.621094 C 1943.910156 1035.328125 1970.488281 1021.898438 1991.128906 1006.328125 C 1993.359375 996.988281 1997.25 988.898438 2002.820312 982.070312 C 2004.148438 1001.140625 2014.351562 1002.578125 2033.421875 986.378906 C 2151.839844 901.449219 2262.179688 832.710938 2364.441406 780.148438 C 2127.199219 974.300781 2004.308594 1076.019531 1995.761719 1085.328125 C 1993.5 1078 1989.609375 1073.019531 1984.078125 1070.398438 C 1976.101562 1092.601562 1967.089844 1105.691406 1957.050781 1109.671875 C 1938.988281 1113.609375 1928.019531 1123.328125 1924.160156 1138.820312 C 1914.941406 1145.511719 1906.859375 1148.851562 1899.910156 1148.820312 C 1898.839844 1156.601562 1899.359375 1162.800781 1901.441406 1167.410156 C 1866.199219 1193.210938 1830.109375 1227.398438 1793.179688 1270.011719 C 1772.269531 1300.648438 1763.910156 1319.191406 1768.101562 1325.640625 C 1733.519531 1332.828125 1708.140625 1347.28125 1691.960938 1368.988281 C 1621.019531 1436.109375 1582.949219 1478.148438 1577.75 1495.128906 C 1568.46875 1495.988281 1560.910156 1494.078125 1555.101562 1489.398438 C 1553.109375 1504.171875 1549.628906 1516.898438 1544.671875 1527.601562 C 1531.941406 1532.25 1521.800781 1536.339844 1514.238281 1539.890625 C 1511.46875 1560.238281 1505.421875 1573.738281 1496.089844 1580.390625 C 1441.039062 1639.398438 1398.910156 1687.828125 1369.691406 1725.710938 C 1355.519531 1726.679688 1347.03125 1732.96875 1344.210938 1744.589844 C 1340.820312 1756.441406 1338.539062 1764.289062 1337.378906 1768.128906 C 1321.320312 1768.328125 1307.648438 1773.648438 1296.371094 1784.078125 C 1299.820312 1802.898438 1301.730469 1815.28125 1302.089844 1821.21875 C 1292.851562 1804.300781 1285.679688 1797.148438 1280.601562 1799.75 C 1255.941406 1818.109375 1244.429688 1831.519531 1246.050781 1839.988281 C 1248.960938 1857.261719 1255.460938 1864.5 1265.550781 1861.703125 C 1220.949219 1897.90625 1184.789062 1939.34375 1157.078125 1986.007812 C 1130.238281 2015.707031 1108.128906 2046.359375 1090.769531 2077.964844 C 1085.921875 2075.046875 1080.589844 2073.925781 1074.789062 2074.597656 C 1073.320312 2078.789062 1075.320312 2082.867188 1080.789062 2086.820312 C 1072.109375 2092.644531 1062.421875 2094.152344 1051.71875 2091.347656 C 1044.019531 2121.164062 1044.570312 2137.472656 1053.359375 2140.265625 C 1034.789062 2147.511719 1020.03125 2148.261719 1009.101562 2142.519531 C 1013.179688 2159.097656 1013.050781 2173.566406 1008.691406 2185.925781 C 1000.828125 2192.46875 993.789062 2196.976562 987.578125 2199.445312 Z M 638.402344 2149.347656 C 550.882812 2285.226562 469.804688 2403.476562 395.175781 2504.097656 C 482.851562 2335.777344 536.75 2228.746094 556.867188 2183.007812 C 547.914062 2164.640625 549.441406 2139.414062 561.453125 2107.320312 C 598.71875 2111.734375 616.683594 2094.914062 615.351562 2056.863281 C 629.554688 2019.007812 654.015625 1990.722656 688.742188 1972.003906 C 773.871094 1891.59375 812.101562 1844.765625 803.425781 1831.519531 C 815.972656 1786.691406 829.347656 1754.960938 843.5625 1736.339844 C 851.191406 1701.589844 859.796875 1672.148438 869.378906 1648.039062 C 909.269531 1639.078125 936.792969 1619.578125 951.941406 1589.558594 C 998.960938 1531.96875 1053.238281 1470.808594 1114.78125 1406.078125 C 1196.621094 1326.78125 1248.230469 1265.808594 1269.601562 1223.171875 C 1266.300781 1206.398438 1265.730469 1187.859375 1267.890625 1167.550781 C 1291.96875 1179.628906 1321.601562 1171.789062 1356.761719 1144.039062 C 1373.851562 1122.308594 1385.511719 1105.691406 1391.738281 1094.160156 C 1427.070312 1075.46875 1461.851562 1050.050781 1496.089844 1017.898438 C 1512.660156 1016.128906 1527 999.890625 1539.101562 969.160156 C 1544.339844 956.179688 1553.320312 946.53125 1566.050781 940.210938 C 1582.25 939.019531 1603.851562 930.140625 1630.851562 913.539062 C 1644.640625 883.300781 1655.441406 864.191406 1663.25 856.210938 C 1683.980469 852.941406 1698.308594 845.671875 1706.261719 834.421875 C 1741.878906 799.03125 1765.199219 771.890625 1776.21875 753.011719 C 1818.441406 739.730469 1845.199219 720.621094 1856.488281 695.671875 C 1856.960938 690.160156 1855.050781 681.558594 1850.761719 669.871094 C 1893.011719 655.710938 1927.609375 638.699219 1954.550781 618.828125 C 1957.570312 606.769531 1962.730469 596.359375 1970.03125 587.589844 C 1971.480469 612.300781 1984.671875 614.308594 2009.589844 593.609375 C 2164.101562 485.320312 2307.929688 397.878906 2441.070312 331.289062 C 2131.179688 579.289062 1970.628906 709.25 1959.429688 721.179688 C 1956.609375 711.648438 1951.640625 705.160156 1944.519531 701.691406 C 1933.878906 730.308594 1922.03125 747.128906 1908.96875 752.148438 C 1885.53125 756.988281 1871.191406 769.421875 1865.96875 789.421875 C 1853.941406 797.960938 1843.429688 802.160156 1834.429688 802.03125 C 1832.949219 812.078125 1833.519531 820.109375 1836.160156 826.109375 C 1790.160156 859.011719 1742.949219 902.78125 1694.539062 957.421875 C 1667.039062 996.789062 1655.960938 1020.679688 1661.289062 1029.089844 C 1616.410156 1037.910156 1583.339844 1056.261719 1562.089844 1084.128906 C 1469.300781 1170.03125 1419.410156 1223.921875 1412.449219 1245.828125 C 1400.410156 1246.820312 1390.660156 1244.238281 1383.199219 1238.089844 C 1380.421875 1257.179688 1375.738281 1273.621094 1369.160156 1287.398438 C 1352.609375 1293.238281 1339.421875 1298.398438 1329.589844 1302.878906 C 1325.71875 1329.191406 1317.691406 1346.578125 1305.519531 1355.058594 C 1233.410156 1430.671875 1178.179688 1492.789062 1139.808594 1541.410156 C 1121.449219 1542.46875 1110.371094 1550.488281 1106.558594 1565.488281 C 1102 1580.789062 1098.941406 1590.921875 1097.378906 1595.878906 C 1076.589844 1595.921875 1058.808594 1602.601562 1044.058594 1615.949219 C 1048.261719 1640.371094 1050.550781 1656.421875 1050.941406 1664.109375 C 1039.21875 1642.078125 1030.039062 1632.71875 1023.421875 1636.019531 C 991.242188 1659.429688 976.144531 1676.628906 978.121094 1687.621094 C 981.644531 1710.03125 989.960938 1719.488281 1003.070312 1716.011719 C 944.804688 1762.261719 897.402344 1815.390625 860.867188 1875.410156 C 825.695312 1913.484375 796.644531 1952.855469 773.71875 1993.53125 C 767.480469 1989.683594 760.601562 1988.152344 753.074219 1988.945312 C 751.109375 1994.351562 753.644531 1999.65625 760.671875 2004.855469 C 749.347656 2012.269531 736.78125 2014.085938 722.972656 2010.304688 C 712.582031 2048.796875 713.058594 2069.917969 724.40625 2073.660156 C 700.253906 2082.777344 681.140625 2083.542969 667.070312 2075.953125 C 672.121094 2097.472656 671.738281 2116.203125 665.925781 2132.144531 C 655.652344 2140.503906 646.476562 2146.238281 638.402344 2149.347656 "/>
</svg>
